<svg height='100px' width='100px'  fill="#000000" xmlns="http://www.w3.org/2000/svg" xmlns:xlink="http://www.w3.org/1999/xlink" version="1.1" x="0px" y="0px" viewBox="0 0 64 64" style="enable-background:new 0 0 64 64;" xml:space="preserve"><path d="M44.8,42.3c-1.8-3.3-3.9-6.5-6.9-8.6c-0.3-0.2-0.5-0.3-0.8-0.5c-4.3-2.3-10-0.2-12.3,2.1c-1.6,1.6-5.4,5.9-6.7,11  c-0.1,0.5-1.1,4.8,1.3,6.8c0.7,0.6,1.7,0.9,2.9,0.9c1.4,0,3.1-0.4,5.1-1.3c3.4-1.5,6.3-1.9,8.7-1.1c0.7,0.2,1.4,0.6,2.2,1  c0.9,0.5,1.8,1,2.7,1.2c1.8,0.4,4.3-0.4,5.6-1.8c2.3-2.5,0.1-6.3-1.3-8.8C45.1,42.9,44.9,42.6,44.8,42.3z"></path><path d="M21.9,25.3c1.2,1.2,2.5,1.9,3.8,1.9c0.2,0,0.5,0,0.7-0.1c1.6-0.3,2.8-1.5,3.6-3.4c0.7-1.8,0.9-4,0.5-6.3  c-0.4-2.2-1.4-4.3-2.7-5.7c-1.4-1.5-3-2.1-4.5-1.8c-1.6,0.3-2.8,1.5-3.6,3.4c-0.7,1.8-0.9,4-0.5,6.3C19.6,21.9,20.6,23.9,21.9,25.3z  "></path><path d="M37.5,26.5c0.2,0,0.4,0.1,0.7,0.1c1.4,0,2.8-0.7,3.9-1.9c1.3-1.4,2.2-3.4,2.6-5.5c0.3-2.2,0.1-4.3-0.8-6  C43,11.3,41.6,10.2,40,10c-1.6-0.2-3.3,0.4-4.6,1.9c-1.3,1.4-2.2,3.4-2.6,5.5c-0.3,2.2-0.1,4.3,0.8,6C34.5,25.2,35.9,26.3,37.5,26.5  z"></path><path d="M54.3,27.6c-0.1-1.9-1-3.4-2.3-4.2c-1.4-0.8-3.1-0.8-4.8,0.1c-1.7,0.8-3.2,2.3-4.2,4.1c-1.1,1.9-1.6,3.9-1.4,5.7  c0.1,1.9,1,3.4,2.3,4.2c0.7,0.4,1.4,0.6,2.2,0.6c0.8,0,1.7-0.2,2.6-0.6c1.7-0.8,3.2-2.3,4.2-4.1C54,31.5,54.5,29.5,54.3,27.6z"></path><path d="M22,34.9c0.3-1.8,0-3.9-0.9-5.8s-2.3-3.5-3.9-4.5c-1.7-1-3.3-1.2-4.8-0.5c-1.4,0.7-2.4,2.1-2.7,4c-0.3,1.8,0,3.9,0.9,5.8  c0.9,1.9,2.3,3.5,3.9,4.5c1,0.6,2,0.9,3,0.9c0.6,0,1.2-0.1,1.8-0.4C20.7,38.2,21.7,36.8,22,34.9z"></path></svg>